# xmcd
#
# Track frame offsets: 
#        150
#        16422
#        34024
#        52627
#        73427
#        95845
#        115887
#        136457
#        155774
#        174298
#        194103
#        214568
#        231590
#        254540
#        272485
#        293950
#        312840
#        335939
#
# Disc length: 4746 seconds
#
# Revision: 0
# Processed by: cddbd v1.5.2PL0 Copyright (c) Steve Scherf et al.
# Submitted via: ExactAudioCopy v0.99pb3
#
DISCID=1c128812
DTITLE=Whitney Houston - Whitney Houston - Greatest Hits 2
DYEAR=1900
DGENRE=Blues
TTITLE0=01 -  Fine
TTITLE1=02 - I Believe In YOu And Me
TTITLE2=03 - HeartBreak Hotel
TTITLE3=04 - Didn't We Almost Have It All
TTITLE4=05 - Same Script  - Different Cast
TTITLE5=06 -  Run To You
TTITLE6=07 - If I Told You That
TTITLE7=08 - It's Not Right But It's Okay
TTITLE8=09 - Step by Step
TTITLE9=10 - Until You Come Back
TTITLE10=11 - I Learned Form The Best
TTITLE11=12 - Queen Of The Night
TTITLE12=13 - I'm Your Baby Tonight
TTITLE13=14 - So Emotional
TTITLE14=15 - One Moment In Time
TTITLE15=16 - Now Will I Know
TTITLE16=17 - Love Will Save The Day
TTITLE17=18 - I Wanna Dance With Somebody
EXTD=
EXTT0=
EXTT1=
EXTT2=
EXTT3=
EXTT4=
EXTT5=
EXTT6=
EXTT7=
EXTT8=
EXTT9=
EXTT10=
EXTT11=
EXTT12=
EXTT13=
EXTT14=
EXTT15=
EXTT16=
EXTT17=
PLAYORDER=
